<svg viewBox="0 0 160 240">
	<title>Duosmium Results</title>
	<path
		fill="currentColor"
		d="m 0.60544412,0 0.23814282,0.29993694 c 0,0 39.64729706,49.68983406 10.03565406,119.78279306 -29.661068,70.20995 10.72958,119.81709 10.72958,119.81709 l 0.03785,0.0465 c -0.01226,-0.0151 -0.189015,-0.23827 -0.422139,-0.54357 -1.875933,-6.16958 -14.4045789,-52.44508 16.776208,-97.11038 33.405385,-47.851952 2.3031,-99.818571 2.3031,-99.818571 l -0.225,-0.375177 0.399533,0.191429 c 0,0 21.450607,10.301184 43.189589,28.28261 21.738978,17.981437 43.783908,43.652159 44.939638,74.408909 0.5782,15.38745 -5.83257,29.03704 -15.76003,40.84668 -9.92743,11.80964 -23.372599,21.78618 -36.886936,29.84013 -24.996403,14.89677 -49.94755,23.12809 -53.601636,24.29592 3.31173,0.0995 32.444802,0.64186 63.343423,-10.09856 C 118.50131,218.46473 152.92111,194.32129 159.31702,143.4435 162.51629,117.99419 154.21051,96.297523 139.95909,78.086436 125.70765,59.875433 105.51335,45.144102 84.925441,33.590878 43.74962,10.484434 0.98289846,0.09315434 0.98289846,0.09315434 Z M 22.358998,239.96432 c -0.167312,-0.005 -0.504076,-0.0116 -0.534638,-0.0128 0.106171,0.003 0.226029,0.007 0.529906,0.0144 9.27e-4,-2.9e-4 0.0038,-9.9e-4 0.0048,-0.002 z m -0.534638,-0.0128 c -0.03561,-9.9e-4 -0.17406,-0.005 -0.177688,-0.005 l 0.0615,0.002 c 0,0 0.109538,0.003 0.11618,0.003 z"
		style="stroke-width: 1.00379;"
	/>
</svg>