<?xml version="1.0" standalone="no"?>
<!DOCTYPE svg PUBLIC "-//W3C//DTD SVG 20010904//EN"
 "http://www.w3.org/TR/2001/REC-SVG-20010904/DTD/svg10.dtd">
<svg version="1.0" xmlns="http://www.w3.org/2000/svg"
 width="960.000000pt" height="960.000000pt" viewBox="0 0 960.000000 960.000000"
 preserveAspectRatio="xMidYMid meet">
<metadata>
Created by potrace 1.14, written by Peter Selinger 2001-2017
</metadata>
<g transform="translate(0.000000,960.000000) scale(0.100000,-0.100000)"
fill="#000000" stroke="none">
<path d="M1649 9571 c12 -16 21 -34 21 -39 0 -6 3 -12 8 -14 25 -11 152 -220
257 -420 42 -81 77 -151 78 -155 0 -4 18 -43 39 -86 21 -43 38 -82 38 -87 0
-6 4 -18 9 -28 17 -34 40 -88 60 -142 11 -30 29 -80 40 -110 39 -104 128 -411
147 -503 2 -10 6 -27 9 -37 3 -10 8 -31 10 -46 2 -16 7 -40 10 -54 20 -85 34
-163 39 -220 2 -19 6 -42 9 -50 7 -18 28 -205 33 -280 1 -30 3 -55 4 -55 4 0
11 -199 12 -345 1 -306 -18 -548 -67 -840 -7 -47 -16 -98 -19 -115 -7 -43 -61
-280 -82 -360 -3 -11 -7 -31 -10 -44 -3 -14 -7 -28 -10 -33 -3 -4 -7 -16 -9
-25 -2 -10 -20 -70 -39 -133 -20 -63 -38 -122 -40 -130 -6 -22 -72 -204 -101
-275 -34 -83 -48 -119 -50 -125 -1 -3 -6 -16 -12 -30 -50 -117 -132 -332 -138
-363 -2 -9 -6 -21 -9 -26 -9 -14 -84 -258 -107 -346 -30 -117 -44 -173 -53
-215 -3 -14 -10 -43 -15 -65 -6 -22 -12 -53 -15 -70 -3 -16 -8 -40 -10 -51 -2
-12 -7 -39 -10 -60 -4 -22 -11 -68 -17 -104 -6 -36 -13 -83 -15 -105 -3 -22
-7 -56 -10 -75 -5 -36 -7 -52 -20 -210 -17 -188 -10 -685 12 -865 2 -22 6 -56
8 -75 8 -63 40 -269 50 -320 5 -22 33 -157 41 -200 2 -8 4 -15 5 -15 2 0 7
-21 15 -60 3 -16 12 -50 19 -75 7 -25 14 -48 15 -52 2 -9 -1 1 52 -168 43
-140 131 -375 176 -470 76 -164 147 -307 159 -320 7 -8 12 -19 12 -23 -1 -9
160 -283 177 -301 6 -6 28 -37 49 -69 21 -32 40 -56 42 -55 1 2 -6 29 -16 60
-10 31 -21 72 -25 90 -3 18 -8 42 -10 53 -13 62 -26 123 -30 145 -2 14 -7 36
-9 50 -5 23 -8 44 -22 135 -8 55 -21 170 -29 270 -3 33 -7 85 -10 115 -6 67
-6 476 0 580 6 94 13 183 20 235 3 22 7 63 10 90 3 28 10 75 15 105 5 30 11
71 14 90 3 19 10 58 16 85 6 28 13 61 15 75 3 14 8 36 11 50 3 14 8 39 11 55
3 17 9 38 14 48 5 9 8 17 5 17 -3 0 0 15 5 33 6 17 12 43 15 57 3 14 12 45 20
70 9 25 18 54 20 65 7 37 118 354 134 383 5 9 26 58 46 107 48 117 184 384
257 505 101 167 157 254 169 258 4 2 8 8 8 14 0 6 19 38 43 72 237 336 432
789 522 1214 20 98 27 133 29 157 1 11 6 38 9 60 4 22 9 60 12 85 2 25 7 77
11 115 15 144 8 606 -11 726 -2 13 -6 48 -9 78 -4 30 -9 64 -11 75 -2 12 -6
39 -9 61 -3 22 -8 51 -11 65 -3 14 -10 52 -15 85 -6 33 -13 67 -17 75 -3 8 -7
24 -8 36 -2 11 -9 40 -15 65 -7 24 -14 51 -16 59 -19 82 -65 239 -83 285 -5
11 -14 38 -20 60 -7 22 -16 49 -21 60 -5 11 -19 49 -31 85 -13 36 -28 68 -33
72 -6 4 -8 8 -4 8 4 0 -2 21 -14 48 -11 26 -29 67 -40 92 -11 25 -49 102 -84
173 -35 70 -62 127 -59 127 6 0 213 -109 285 -150 36 -20 87 -50 115 -65 27
-15 103 -59 167 -99 65 -39 127 -75 138 -81 11 -5 20 -13 20 -17 0 -5 4 -8 9
-8 5 0 44 -22 85 -50 42 -27 80 -50 85 -50 5 0 11 -4 13 -8 3 -9 93 -72 103
-72 3 0 11 -5 18 -10 13 -11 82 -61 173 -125 87 -60 293 -216 386 -290 46 -36
90 -72 98 -78 14 -10 44 -35 159 -132 141 -118 442 -409 581 -560 67 -73 173
-195 220 -254 19 -24 51 -63 70 -86 86 -106 289 -402 346 -505 10 -19 21 -37
24 -40 12 -12 172 -329 174 -346 1 -7 8 -19 15 -28 7 -9 10 -16 6 -16 -4 0 -3
-6 3 -12 6 -7 10 -15 11 -18 0 -3 7 -22 15 -42 9 -21 16 -44 16 -52 0 -8 4
-17 9 -20 4 -3 14 -27 21 -53 7 -27 16 -52 20 -58 4 -5 10 -21 14 -35 70 -263
89 -342 90 -387 1 -13 3 -23 6 -23 3 0 5 -10 6 -22 0 -13 4 -43 7 -68 25 -180
26 -503 2 -620 -3 -14 -8 -41 -11 -60 -8 -50 -46 -214 -57 -240 -3 -8 -15 -44
-27 -80 -18 -55 -38 -105 -94 -240 -3 -8 -26 -51 -50 -95 -25 -44 -55 -99 -67
-123 -12 -23 -27 -42 -32 -42 -6 0 -8 -3 -5 -6 4 -3 -15 -36 -40 -72 -25 -37
-55 -81 -66 -97 -24 -35 -79 -108 -86 -115 -3 -3 -41 -48 -85 -100 -210 -251
-489 -510 -780 -726 -55 -41 -107 -80 -115 -87 -8 -6 -42 -30 -75 -52 -33 -22
-62 -42 -65 -45 -3 -3 -54 -38 -115 -77 -60 -40 -115 -76 -120 -81 -6 -5 -15
-11 -20 -13 -8 -3 -101 -59 -165 -99 -31 -20 -216 -126 -240 -138 -14 -7 -56
-30 -95 -52 -63 -36 -547 -282 -552 -281 -1 0 -35 -15 -75 -33 -40 -18 -88
-39 -105 -47 -18 -8 -33 -17 -33 -21 0 -5 -3 -7 -7 -6 -5 1 -89 -32 -188 -74
-218 -92 -427 -175 -593 -234 -68 -24 -128 -46 -133 -50 -5 -3 -20 -7 -33 -10
-13 -2 -39 -11 -57 -19 -31 -14 -15 -15 211 -10 135 3 263 7 285 10 38 3 164
13 265 21 25 2 70 6 100 10 30 4 70 8 87 8 18 1 33 3 33 6 0 3 18 5 41 5 22 0
42 2 44 5 2 3 21 7 42 8 38 3 78 9 78 12 0 1 14 3 30 4 27 2 82 11 140 22 22
5 60 11 106 19 75 13 289 59 344 74 22 6 51 12 65 15 14 2 25 5 25 6 0 1 10 3
23 6 146 27 850 257 872 285 3 3 16 10 30 14 33 10 148 59 234 101 38 19 75
34 82 34 7 0 14 3 16 8 2 4 41 27 88 51 329 169 670 400 910 616 75 66 322
317 365 369 22 27 45 54 51 60 12 13 155 203 197 262 49 68 97 145 97 155 0 5
5 9 10 9 6 0 10 5 10 11 0 6 8 23 19 37 22 33 152 275 156 292 1 3 17 39 37
80 19 42 46 104 58 138 13 35 27 65 31 68 5 3 9 16 9 30 0 13 5 24 12 24 6 0
9 3 6 6 -4 3 7 45 24 92 28 81 65 198 72 232 2 8 9 35 16 60 7 25 14 54 17 65
7 34 13 59 17 80 2 11 10 43 16 70 6 28 13 64 16 80 2 17 6 37 7 45 12 51 26
141 32 196 2 23 7 55 9 70 21 113 29 560 13 709 -24 234 -66 452 -118 619 -11
38 -22 76 -24 85 -4 15 -48 140 -62 171 -3 8 -7 20 -9 25 -2 11 -24 64 -56
135 -27 61 -141 287 -164 327 -11 17 -34 57 -53 90 -46 79 -144 227 -153 231
-5 2 -8 8 -8 13 0 6 -5 15 -10 22 -6 7 -29 37 -51 67 -22 30 -53 71 -68 90
-16 19 -50 62 -77 96 -178 221 -393 440 -684 698 -30 26 -69 59 -167 141 -7 5
-18 15 -25 20 -8 6 -37 29 -65 53 -28 23 -56 42 -61 42 -6 0 -12 4 -14 9 -7
19 -458 341 -478 341 -5 0 -10 3 -12 8 -3 8 -145 102 -153 102 -3 0 -11 5 -18
10 -16 14 -117 80 -120 78 -1 -1 -21 11 -44 25 -24 15 -47 27 -52 27 -5 0 -11
4 -13 8 -3 7 -77 51 -273 162 -22 13 -69 38 -104 57 -35 18 -70 38 -78 44 -7
6 -13 8 -13 3 0 -5 -4 -4 -8 2 -7 11 -446 232 -587 296 -44 20 -109 50 -145
66 -151 69 -181 82 -195 82 -8 0 -15 4 -15 9 0 5 -10 13 -22 16 -20 5 -98 37
-223 91 -71 30 -338 135 -430 169 -55 20 -113 42 -130 50 -16 7 -41 16 -55 20
-14 3 -34 10 -45 16 -29 13 -364 129 -400 138 -16 4 -57 17 -90 29 -55 20 -95
32 -295 94 -103 31 -342 99 -380 108 -19 4 -51 13 -70 19 -19 6 -36 11 -38 11
-2 0 6 -13 17 -29z"/>
</g>
</svg>
